<svg xmlns="http://www.w3.org/2000/svg" width="32" height="32" viewBox="0 0 32 32">
  <g id="close_hover" transform="translate(-269.757 -50.747)">
    <path id="Path_91" data-name="Path 91" d="M285.743,50.747a16,16,0,1,1-15.986,16A16,16,0,0,1,285.743,50.747Zm-.023,14.44a3.668,3.668,0,0,0-.268-.349q-1.79-1.8-3.586-3.588a1.146,1.146,0,1,0-1.6,1.619q1.8,1.808,3.611,3.613c.088.088.171.182.288.305-.131.113-.237.192-.329.285q-1.832,1.855-3.663,3.713a1.166,1.166,0,0,0-.385,1.061,1.076,1.076,0,0,0,.773.9,1.126,1.126,0,0,0,1.206-.327q1.869-1.895,3.736-3.791c.081-.082.169-.157.311-.29a3.15,3.15,0,0,0,.251.332q1.852,1.861,3.709,3.717a1.177,1.177,0,0,0,1.02.4,1.164,1.164,0,0,0,.647-2.021l-3.814-3.763c-.082-.081-.157-.168-.214-.229.554-.569,1.078-1.121,1.617-1.659.792-.791,1.6-1.569,2.389-2.359a1.179,1.179,0,0,0,.256-1.377,1.087,1.087,0,0,0-1.179-.616,1.635,1.635,0,0,0-.76.413C288.41,62.478,287.105,63.8,285.72,65.187Z" transform="translate(0 0)" fill="#d93939" fill-rule="evenodd"/>
  </g>
</svg>
