<svg xmlns="http://www.w3.org/2000/svg" width="36.01" height="36" viewBox="0 0 36.01 36">
  <g id="close_hover" transform="translate(-269.757 -50.747)">
    <path id="Path_91" data-name="Path 91" d="M287.747,50.747a18,18,0,1,1-17.99,18A18.006,18.006,0,0,1,287.747,50.747Zm-.026,16.245a4.127,4.127,0,0,0-.3-.393q-2.014-2.022-4.035-4.037a1.289,1.289,0,1,0-1.8,1.821q2.031,2.034,4.064,4.065c.1.1.193.2.324.343-.148.127-.267.216-.37.321q-2.062,2.087-4.122,4.177a1.311,1.311,0,0,0-.433,1.193,1.211,1.211,0,0,0,.87,1.01,1.268,1.268,0,0,0,1.357-.368q2.1-2.132,4.2-4.265c.091-.092.19-.177.35-.326a3.547,3.547,0,0,0,.283.373q2.085,2.093,4.174,4.182a1.325,1.325,0,0,0,1.148.455,1.309,1.309,0,0,0,.728-2.274q-2.146-2.117-4.293-4.233c-.092-.091-.176-.189-.24-.258.623-.64,1.214-1.261,1.82-1.866.891-.89,1.8-1.765,2.688-2.654a1.326,1.326,0,0,0,.289-1.549,1.224,1.224,0,0,0-1.327-.693,1.84,1.84,0,0,0-.855.464C290.747,63.944,289.279,65.431,287.72,66.992Z" transform="translate(0 0)" fill="#444b55" fill-rule="evenodd"/>
  </g>
</svg>
