<svg xmlns="http://www.w3.org/2000/svg" width="32" height="32" viewBox="0 0 32 32">
  <g id="approve" transform="translate(377.361 -114.751)">
    <path id="Path_269" data-name="Path 269" d="M-345.361,129.813v1.875c-.026.225-.052.449-.077.674a15.806,15.806,0,0,1-4.018,9.055,15.694,15.694,0,0,1-9.149,5.084c-.6.107-1.212.167-1.818.249H-362.3a1.663,1.663,0,0,0-.241-.051,15.228,15.228,0,0,1-6.981-2.2,15.793,15.793,0,0,1-7.592-10.994c-.112-.6-.167-1.21-.249-1.815v-1.875c.025-.225.052-.45.077-.674a15.807,15.807,0,0,1,4.019-9.055A15.694,15.694,0,0,1-364.117,115c.6-.107,1.212-.167,1.819-.249h1.875a1.73,1.73,0,0,0,.241.051,15.225,15.225,0,0,1,6.98,2.2A15.793,15.793,0,0,1-345.61,128C-345.5,128.6-345.443,129.208-345.361,129.813Zm-18.446,3.619c-.635-.581-1.217-1.115-1.8-1.646-.886-.806-1.752-1.634-2.666-2.407a1.536,1.536,0,0,0-2.279.411,1.649,1.649,0,0,0,.408,2.111q2.574,2.347,5.15,4.692a1.611,1.611,0,0,0,2.5-.054l9.867-9.795c.1-.1.207-.206.3-.317a1.6,1.6,0,0,0-.453-2.438,1.624,1.624,0,0,0-2.059.4q-4.375,4.373-8.747,8.75A2.644,2.644,0,0,0-363.807,133.433Z" transform="translate(0 0)" fill="#2da511" fill-rule="evenodd"/>
  </g>
</svg>
