<svg xmlns="http://www.w3.org/2000/svg" width="32" height="32" viewBox="0 0 32 32">
  <g id="print" transform="translate(-1848 -384)">
    <path id="Path_249" data-name="Path 249" d="M0,0H32V32H0Z" transform="translate(1848 384)" fill="#c15252" opacity="0"/>
    <g id="print-2" data-name="print" transform="translate(2248.25 315.25)">
      <path id="Path_23" data-name="Path 23" d="M-379.425,96.745h-9.654a.226.226,0,0,0-.059-.034,2.481,2.481,0,0,1-2.108-2.583c0-1.039,0-2.077,0-3.116v-.265h-.287c-.75,0-1.5.007-2.249,0a2.492,2.492,0,0,1-2.344-1.732c-.045-.139-.082-.28-.123-.42V80.9c.012-.019.033-.037.036-.057a2.513,2.513,0,0,1,2.595-2.1c.7.018,1.406,0,2.109,0h.264c0-.127,0-.219,0-.312,0-1.1-.006-2.2.009-3.3a2.356,2.356,0,0,1,.776-1.7,2.81,2.81,0,0,1,1.383-.683h9.654c.012.009.023.024.037.027a2.5,2.5,0,0,1,2.131,2.708q0,1.5,0,3v.265h.288c.75,0,1.5-.007,2.249,0a2.487,2.487,0,0,1,2.343,1.733c.045.139.082.28.123.42v7.686a.2.2,0,0,0-.036.057,2.491,2.491,0,0,1-2.594,2.1h-2.373c0,.127,0,.219,0,.312,0,1.1.012,2.2-.01,3.3a2.465,2.465,0,0,1-1.779,2.281C-379.172,96.679-379.3,96.711-379.425,96.745Zm2.167-6.995c.815,0,1.588,0,2.36,0a1.525,1.525,0,0,0,1.647-1.652q0-3.35,0-6.7a1.523,1.523,0,0,0-1.646-1.652q-1.557,0-3.115,0-7.825,0-15.649,0a1.506,1.506,0,0,0-1.591,1.588q-.006,3.409,0,6.818a1.512,1.512,0,0,0,1.606,1.6c.719,0,1.437,0,2.155,0,.075,0,.15-.008.245-.014v-.275q0-1.534,0-3.069c0-.483.165-.647.648-.647h12.7c.477,0,.642.169.642.654q0,1.535,0,3.069Zm-1-2.981h-12v.273q0,3.526,0,7.052a1.52,1.52,0,0,0,1.665,1.654h8.669a1.52,1.52,0,0,0,1.664-1.655q0-3.526,0-7.052Zm0-8.026v-.226c0-1.062,0-2.125,0-3.187a1.5,1.5,0,0,0-1.57-1.583q-4.429-.007-8.857,0a1.5,1.5,0,0,0-1.57,1.583q0,1.593,0,3.187v.226Z" fill-rule="evenodd"/>
      <path id="Path_24" data-name="Path 24" d="M-264.645,361.708c-.983,0-1.966,0-2.949,0a.487.487,0,0,1-.55-.451.493.493,0,0,1,.439-.539.922.922,0,0,1,.117,0q2.938,0,5.875,0a.507.507,0,0,1,.557.5.5.5,0,0,1-.562.493C-262.695,361.71-263.67,361.708-264.645,361.708Z" transform="translate(-120.097 -269.965)" fill-rule="evenodd"/>
      <path id="Path_25" data-name="Path 25" d="M-264.777,392.762c.991,0,1.982,0,2.973,0a.489.489,0,0,1,.495.677.508.508,0,0,1-.523.317c-.655,0-1.311,0-1.966,0h-3.886a.527.527,0,0,1-.556-.34.5.5,0,0,1,.513-.654C-266.743,392.759-265.76,392.762-264.777,392.762Z" transform="translate(-119.985 -300.012)" fill-rule="evenodd"/>
      <path id="Path_26" data-name="Path 26" d="M-266.649,329.631c-.312,0-.625,0-.937,0-.356-.006-.572-.207-.566-.515a.5.5,0,0,1,.568-.49q.925-.007,1.851,0a.515.515,0,0,1,.572.491.518.518,0,0,1-.574.514C-266.039,329.636-266.344,329.631-266.649,329.631Z" transform="translate(-120.092 -239.881)" fill-rule="evenodd"/>
    </g>
  </g>
</svg>
