<svg xmlns="http://www.w3.org/2000/svg" width="32" height="32" viewBox="0 0 32 32">
  <g id="edit" transform="translate(-1728 -384)">
    <path id="Path_251" data-name="Path 251" d="M0,0H32V32H0Z" transform="translate(1728 384)" fill="#c15252" opacity="0"/>
    <g id="edit-2" data-name="edit" transform="translate(-63 166)">
      <path id="Path_119" data-name="Path 119" d="M262.238,108.639a5.835,5.835,0,0,1,.365-.953,2.3,2.3,0,0,1,2.055-1.2c3.3-.015,6.6-.007,9.9-.006a.674.674,0,1,1-.027,1.346q-4.828,0-9.656,0a1.147,1.147,0,0,0-1.292,1.3q0,7.018,0,14.035a1.145,1.145,0,0,0,1.285,1.285h14.057a1.142,1.142,0,0,0,1.278-1.27q0-4.783,0-9.566a1.589,1.589,0,0,1,.012-.291.672.672,0,0,1,1.333.107c.008.247,0,.494,0,.741,0,3.009-.014,6.018.006,9.027a2.5,2.5,0,0,1-2.105,2.568c-.02,0-.038.021-.057.032h-15a.606.606,0,0,0-.1-.039,2.439,2.439,0,0,1-1.938-1.69c-.049-.139-.079-.284-.117-.427Z" transform="translate(1532.762 120.201)" fill-rule="evenodd"/>
      <path id="Path_120" data-name="Path 120" d="M411.666,48.123a2.5,2.5,0,0,1-.777,1.176q-4.85,4.837-9.687,9.687a1.3,1.3,0,0,1-.711.386c-.977.183-1.95.387-2.926.577a.668.668,0,0,1-.825-.825c.2-1.02.4-2.04.612-3.056a.974.974,0,0,1,.248-.462q5.033-5.05,10.078-10.09a2.1,2.1,0,0,1,.889-.493h.494a2.185,2.185,0,0,1,1.149.728c.227.247.465.485.712.712a2.225,2.225,0,0,1,.744,1.165Zm-4.791.067a2.534,2.534,0,0,1-.164.2c-2.48,2.482-4.954,4.972-7.451,7.437a2.28,2.28,0,0,0-.791,1.462,11.288,11.288,0,0,1-.213,1.132,1.257,1.257,0,0,0,.141-.008c.579-.115,1.159-.226,1.735-.352a.575.575,0,0,0,.252-.167q3.971-3.965,7.939-7.933a.943.943,0,0,1,.195-.122Zm2.616.613c.241-.246.48-.492.722-.736a.242.242,0,0,0,.009-.389c-.407-.407-.809-.819-1.227-1.215a.308.308,0,0,0-.29-.042c-.282.261-.541.547-.792.808Z" transform="translate(1407.334 176.977)" fill-rule="evenodd"/>
    </g>
  </g>
</svg>
