<svg xmlns="http://www.w3.org/2000/svg" width="32" height="32" viewBox="0 0 32 32">
  <g id="lock" transform="translate(-1808 -384)">
    <path id="Path_250" data-name="Path 250" d="M0,0H32V32H0Z" transform="translate(1808 384)" fill="#c15252" opacity="0"/>
    <g id="lock-2" data-name="lock" transform="translate(1488.112 312.2)">
      <path id="Path_252" data-name="Path 252" d="M335.423,75.8h.938c.383.065.772.108,1.149.2a6.988,6.988,0,0,1,5.37,6.647c.01.632.006,1.265.008,1.9,0,.082,0,.164,0,.258.49,0,.943,0,1.4,0,.412,0,.607.192.607.6q0,6.173,0,12.347a1.881,1.881,0,0,1-.823,1.648,5.222,5.222,0,0,1-.957.4H328.673a.144.144,0,0,0-.041-.022,2.063,2.063,0,0,1-1.747-2.171c.018-4.037.007-8.075.007-12.113,0-.534.162-.695.7-.695h1.3c0-.637,0-1.244,0-1.851a7.006,7.006,0,0,1,5.087-6.868C334.45,75.946,334.942,75.891,335.423,75.8Zm4.465,8.99c0-.571.012-1.118,0-1.664a6.123,6.123,0,0,0-.1-1.185,3.983,3.983,0,0,0-7.826.227,18.527,18.527,0,0,0-.063,1.894c-.006.239,0,.479,0,.728ZM335.876,95.8c.312,0,.625.008.937,0a.528.528,0,0,0,.568-.654c-.095-.861-.194-1.721-.283-2.583a.317.317,0,0,1,.082-.236,2,2,0,0,0-1.77-3.462,2,2,0,0,0-.813,3.456.316.316,0,0,1,.089.234c-.087.854-.183,1.707-.281,2.56a.544.544,0,0,0,.6.687C335.3,95.807,335.587,95.8,335.876,95.8Z" fill="none" stroke="#000" stroke-width="1" fill-rule="evenodd"/>
    </g>
  </g>
</svg>
