<svg xmlns="http://www.w3.org/2000/svg" width="32" height="32" viewBox="0 0 32 32">
  <g id="block" transform="translate(-1848 -296)">
    <rect id="Rectangle_158" data-name="Rectangle 158" width="32" height="32" transform="translate(1848 296)" fill="#c15252" opacity="0"/>
    <g id="block-2" data-name="block" transform="translate(218 21)">
      <g id="Group_375" data-name="Group 375" transform="translate(1634 279)">
        <path id="Path_97" data-name="Path 97" d="M-258.989,194.619H-260.4a1.269,1.269,0,0,0-.181-.039,11.424,11.424,0,0,1-5.235-1.652,11.841,11.841,0,0,1-5.694-8.245c-.084-.45-.126-.908-.187-1.361v-1.406c.019-.169.039-.337.057-.506a11.856,11.856,0,0,1,3.014-6.791,11.766,11.766,0,0,1,6.861-3.813c.452-.08.909-.125,1.364-.187h1.406a1.293,1.293,0,0,0,.181.039,11.422,11.422,0,0,1,5.235,1.651,11.846,11.846,0,0,1,5.694,8.245c.084.45.125.907.187,1.361v1.406c-.037.308-.068.617-.111.924a11.791,11.791,0,0,1-2.944,6.356,11.778,11.778,0,0,1-6.877,3.83C-258.077,194.512-258.534,194.558-258.989,194.619Zm-7.541-4.295a10.253,10.253,0,0,0,14.372-.659,10.231,10.231,0,0,0,.166-13.879Zm13.29-15.752a10.281,10.281,0,0,0-14.1,1.115,10.242,10.242,0,0,0-.39,13.372Z" transform="translate(271.692 -170.619)" fill-rule="evenodd"/>
      </g>
    </g>
  </g>
</svg>
