<svg xmlns="http://www.w3.org/2000/svg" width="32" height="32" viewBox="0 0 32 32">
  <g id="trash" transform="translate(-1806 -296)">
    <rect id="Rectangle_157" data-name="Rectangle 157" width="32" height="32" transform="translate(1806 296)" fill="#c15252" opacity="0"/>
    <g id="trash-2" data-name="trash" transform="translate(241 160)">
      <g id="Group_371" data-name="Group 371" transform="translate(1571 140)">
        <path id="Path_92" data-name="Path 92" d="M314.747,67.834h5.531a.366.366,0,0,0,.084.035,2.187,2.187,0,0,1,1.846,2.007c.014.285.026.571.04.877h.293c.929.009,1.859-.011,2.786.036a2.082,2.082,0,0,1,1.9,1.805,2.116,2.116,0,0,1-1.32,2.288.322.322,0,0,0-.248.368q.009,6.653,0,13.306a6.782,6.782,0,0,1-.037.7,2.883,2.883,0,0,1-2.2,2.51c-.081.019-.16.045-.241.068H311.841a.825.825,0,0,0-.128-.045,2.694,2.694,0,0,1-1.4-.7,3.111,3.111,0,0,1-.955-2.382q0-6.736.006-13.473a.3.3,0,0,0-.241-.346,1.872,1.872,0,0,1-.934-.714A2.054,2.054,0,0,1,307.971,72a1.944,1.944,0,0,1,1.705-1.212c.934-.053,1.873-.029,2.81-.039h.3c0-.228,0-.429,0-.63a2.13,2.13,0,0,1,.922-1.848A5.788,5.788,0,0,1,314.747,67.834Zm9.789,7.212H310.481v.2q0,6.738,0,13.475a3.045,3.045,0,0,0,.037.466,1.727,1.727,0,0,0,1.744,1.516q5.25.005,10.5,0a1.647,1.647,0,0,0,1.155-.433,2.026,2.026,0,0,0,.618-1.585q0-6.7,0-13.4ZM317.489,73.9h7.38a3.365,3.365,0,0,0,.351-.015,1,1,0,0,0,.195-1.95,1.764,1.764,0,0,0-.485-.058q-7.415,0-14.83,0a2.339,2.339,0,0,0-.35.024,1,1,0,0,0-.1,1.959,2.1,2.1,0,0,0,.488.04Q313.81,73.906,317.489,73.9Zm-3.592-3.17h7.191a8.3,8.3,0,0,0,0-.832,1.024,1.024,0,0,0-1-.935q-2.566-.019-5.132,0a1.018,1.018,0,0,0-1,.858A7.57,7.57,0,0,0,313.9,70.734Z" transform="translate(-307.757 -67.834)" fill-rule="evenodd"/>
        <path id="Path_93" data-name="Path 93" d="M413.309,228.6q0,2.553,0,5.106c0,.483-.191.741-.551.747s-.573-.266-.573-.754q0-5.118,0-10.235a1.462,1.462,0,0,1,.034-.324.522.522,0,0,1,.521-.418.53.53,0,0,1,.537.4,1.334,1.334,0,0,1,.03.324Q413.311,226.019,413.309,228.6Z" transform="translate(-406.315 -214.012)" fill-rule="evenodd"/>
        <path id="Path_94" data-name="Path 94" d="M471.244,228.564q0-2.6,0-5.2a.621.621,0,0,1,.3-.614.549.549,0,0,1,.779.313,1.349,1.349,0,0,1,.043.369q0,5.118,0,10.235a1.455,1.455,0,0,1-.032.324.545.545,0,0,1-1.065,0,1.468,1.468,0,0,1-.026-.325Q471.243,231.117,471.244,228.564Z" transform="translate(-462.054 -213.983)" fill-rule="evenodd"/>
        <path id="Path_95" data-name="Path 95" d="M530.28,228.563q0-2.553,0-5.106c0-.5.2-.755.568-.749s.557.267.557.744q0,5.117,0,10.235c0,.488-.209.76-.575.753s-.55-.264-.55-.748Q530.28,231.128,530.28,228.563Z" transform="translate(-517.773 -214.003)" fill-rule="evenodd"/>
      </g>
    </g>
  </g>
</svg>
