<svg xmlns="http://www.w3.org/2000/svg" width="32" height="32" viewBox="0 0 32 32">
  <g id="download" transform="translate(-1683 -309)">
    <g id="Rectangle_207" data-name="Rectangle 207" transform="translate(1683 309)" fill="#fff" stroke="#707070" stroke-width="1" opacity="0">
      <rect width="32" height="32" stroke="none"/>
      <rect x="0.5" y="0.5" width="31" height="31" fill="none"/>
    </g>
    <g id="Group_932" data-name="Group 932" transform="translate(2091.273 213.266)">
      <path id="Path_918" data-name="Path 918" d="M-326.191,115.38v-.315q0-7.148,0-14.3a1.572,1.572,0,0,1,.047-.443.846.846,0,0,1,.915-.586.866.866,0,0,1,.763.773c.008.1,0,.194,0,.291q0,7.148,0,14.3v.339c.105-.094.177-.154.243-.218q2.151-2.1,4.3-4.2a.863.863,0,0,1,.886-.247.809.809,0,0,1,.6.619.858.858,0,0,1-.3.857q-1.581,1.537-3.156,3.082-1.367,1.336-2.734,2.672a.9.9,0,0,1-1.429,0q-2.944-2.877-5.889-5.754a.848.848,0,0,1-.284-.883.811.811,0,0,1,.625-.6.891.891,0,0,1,.879.278q1.966,1.928,3.937,3.85c.177.173.347.351.521.527Z" transform="translate(-66.948 0)" fill-rule="evenodd"/>
      <path id="Path_919" data-name="Path 919" d="M-402.558,355.945h20.569v-.284q0-1.493,0-2.986a.861.861,0,0,1,.852-.949.862.862,0,0,1,.861.94c0,1.075,0,2.149,0,3.224a1.7,1.7,0,0,1-1.767,1.755q-10.228,0-20.455,0a1.7,1.7,0,0,1-1.773-1.749q-.006-1.625,0-3.25a.855.855,0,0,1,.854-.92.858.858,0,0,1,.859.916C-402.556,353.733-402.558,354.825-402.558,355.945Z" transform="translate(0 -234.227)" fill-rule="evenodd"/>
    </g>
  </g>
</svg>
