<svg xmlns="http://www.w3.org/2000/svg" width="32" height="32" viewBox="0 0 32 32">
  <g id="resend" transform="translate(-1832 -296)">
    <rect id="Rectangle_156" data-name="Rectangle 156" width="32" height="32" transform="translate(1832 296)" fill="#c15252" opacity="0"/>
    <g id="resend-2" data-name="resend" transform="translate(35.714 28.884)">
      <g id="Group_413" data-name="Group 413" transform="translate(1800.286 271.116)">
        <g id="Group_412" data-name="Group 412" transform="translate(0 0)">
          <path id="Path_123" data-name="Path 123" d="M-314.613,203.881l2.861,2.6q1.764,1.606,3.528,3.213a.746.746,0,0,0,1.165,0q3.079-2.8,6.153-5.6c.067-.061.136-.12.233-.206.011.094.023.153.024.213q0,3.836,0,7.671a.744.744,0,0,1-.836.831q-6.159,0-12.319,0a.73.73,0,0,1-.823-.765q-.006-3.911,0-7.821C-314.628,203.991-314.621,203.96-314.613,203.881Z" transform="translate(319.671 -195.72)" fill-rule="evenodd"/>
          <path id="Path_124" data-name="Path 124" d="M-203.165,44.5c.1.455.195.851.278,1.249a.723.723,0,0,1-.524.868.711.711,0,0,1-.87-.522q-.358-1.492-.68-2.993a.676.676,0,0,1,.514-.823q1.5-.364,3.016-.691a.709.709,0,0,1,.819.533.717.717,0,0,1-.5.862c-.2.061-.4.1-.606.145l-.617.15c.375.3.745.57,1.087.871A11.729,11.729,0,0,1-197.2,51.8,11.976,11.976,0,0,1-206.858,65a11.128,11.128,0,0,1-3.506.136.712.712,0,0,1-.7-.8.722.722,0,0,1,.86-.629,10.342,10.342,0,0,0,9.74-4.453,10.533,10.533,0,0,0-2.471-14.6C-203,44.61-203.058,44.572-203.165,44.5Z" transform="translate(221.092 -41.219)" fill-rule="evenodd"/>
          <path id="Path_125" data-name="Path 125" d="M-413.552,54.779c-.1-.443-.2-.845-.285-1.249a.721.721,0,0,1,.83-.929.647.647,0,0,1,.546.491q.366,1.516.7,3.041a.7.7,0,0,1-.559.822q-1.47.346-2.944.669a.7.7,0,0,1-.851-.542.717.717,0,0,1,.532-.861c.314-.08.633-.143.949-.216.056-.013.11-.035.172-.055-.372-.31-.749-.6-1.1-.917a11.69,11.69,0,0,1-3.842-7.419,11.947,11.947,0,0,1,6.9-12.372,11.841,11.841,0,0,1,6.257-1.024.725.725,0,0,1,.706.779.705.705,0,0,1-.81.661,11.559,11.559,0,0,0-2.937.093,10.331,10.331,0,0,0-4.969,2.3,10.027,10.027,0,0,0-3.651,6.433,10.326,10.326,0,0,0,4.176,10.182C-413.689,54.7-413.638,54.724-413.552,54.779Z" transform="translate(419.493 -34.152)" fill-rule="evenodd"/>
          <path id="Path_126" data-name="Path 126" d="M-293.471,182.164h11.945L-287.5,187.6Z" transform="translate(299.531 -175.047)" fill-rule="evenodd"/>
        </g>
      </g>
    </g>
  </g>
</svg>
