<svg xmlns="http://www.w3.org/2000/svg" width="39.433" height="39.433" viewBox="0 0 39.433 39.433">
  <path id="plus" d="M13.932,0A13.94,13.94,0,1,1,0,13.943,13.944,13.944,0,0,1,13.932,0Zm-.02,12.581a3.2,3.2,0,0,0-.234-.3q-1.56-1.566-3.125-3.126a1,1,0,1,0-1.4,1.41q1.573,1.575,3.147,3.148c.077.077.149.158.251.266-.114.1-.206.168-.286.248q-1.6,1.617-3.192,3.235a1.015,1.015,0,0,0-.336.924.938.938,0,0,0,.674.782.982.982,0,0,0,1.051-.285l3.256-3.3c.071-.071.147-.137.271-.252a2.75,2.75,0,0,0,.219.289q1.614,1.621,3.233,3.238a1.026,1.026,0,0,0,.889.352,1.014,1.014,0,0,0,.564-1.761l-3.324-3.278c-.071-.07-.136-.146-.186-.2.483-.5.94-.977,1.409-1.445.69-.689,1.392-1.367,2.082-2.056a1.027,1.027,0,0,0,.223-1.2.948.948,0,0,0-1.028-.536,1.425,1.425,0,0,0-.662.36C16.256,10.22,15.119,11.371,13.911,12.581Z" transform="translate(19.714 0) rotate(45)" fill="#444b55" fill-rule="evenodd"/>
</svg>
