<svg xmlns="http://www.w3.org/2000/svg" width="32" height="32" viewBox="0 0 32 32">
  <g id="dowload" transform="translate(-1629 -307)">
    <g id="_1" data-name="1" transform="translate(-54 -2)" opacity="0">
      <g id="Rectangle_207" data-name="Rectangle 207" transform="translate(1683 309)" fill="#ce5c5c" stroke="#707070" stroke-width="1">
        <rect width="32" height="32" stroke="none"/>
        <rect x="0.5" y="0.5" width="31" height="31" fill="none"/>
      </g>
    </g>
    <g id="Group_944" data-name="Group 944" transform="translate(1979.05 205.113)">
      <path id="Path_926" data-name="Path 926" d="M-335.787,190.416h-10.238a1.816,1.816,0,0,1-2.024-2.008q0-7.215,0-14.43a1.81,1.81,0,0,1,2.006-1.994h10.782c.1,0,.193-.005.288,0a.51.51,0,0,1,.489.5.511.511,0,0,1-.5.52c-.1.008-.192,0-.288,0h-10.75c-.745,0-1,.256-1,.994q0,7.2,0,14.4c0,.736.26.991,1.006.991h20.509c.76,0,1.012-.254,1.012-1.018q0-2.959,0-5.919a1.5,1.5,0,0,1,.012-.319.483.483,0,0,1,.493-.418.483.483,0,0,1,.5.405,1.325,1.325,0,0,1,.014.318q0,2.991,0,5.983a1.808,1.808,0,0,1-1.978,1.991Z" transform="translate(0 -60.457)" stroke="#000" stroke-width="0.4" fill-rule="evenodd"/>
      <path id="Path_927" data-name="Path 927" d="M-163.514,111.069a17.546,17.546,0,0,1-.452,4.561,7.577,7.577,0,0,1-2.336,3.561,13.949,13.949,0,0,1-3.139,2.186.675.675,0,0,1-.666.065,12.856,12.856,0,0,1-4.656-3.813,7.674,7.674,0,0,1-1.3-3.828,24.644,24.644,0,0,1-.008-4.823c.036-.408.145-.544.556-.608a10.875,10.875,0,0,0,5.29-2.321c.277-.225.469-.213.774.032a10.546,10.546,0,0,0,4.83,2.208c.96.17.967.128,1.031,1.207C-163.548,110.112-163.529,110.73-163.514,111.069Zm-1.1-1.7a1.524,1.524,0,0,0-.2-.068,11.914,11.914,0,0,1-4.854-2.1.277.277,0,0,0-.389.018,11.906,11.906,0,0,1-4.8,2.072c-.179.034-.238.109-.249.293a23.877,23.877,0,0,0,.072,4.28,6.583,6.583,0,0,0,.949,2.951,11.246,11.246,0,0,0,4.1,3.531.428.428,0,0,0,.34-.038,12.479,12.479,0,0,0,2.626-1.865,6.589,6.589,0,0,0,2-2.916A18.168,18.168,0,0,0-164.618,109.369Z" transform="translate(-157.205)" stroke="#000" stroke-width="0.4" fill-rule="evenodd"/>
      <path id="Path_928" data-name="Path 928" d="M-304.763,219.747a3.9,3.9,0,0,1,2.745,2.965,4.625,4.625,0,0,1,.04,1.644,1.657,1.657,0,0,1-1.637,1.361q-3.407.022-6.813,0a1.784,1.784,0,0,1-1.716-1.734,4.066,4.066,0,0,1,2.873-4.237,3.357,3.357,0,0,1-1.008-3.139,3.189,3.189,0,0,1,1.222-1.964,3.325,3.325,0,0,1,4.425.312A3.374,3.374,0,0,1-304.763,219.747Zm-2.259,4.953c1.087,0,2.175,0,3.262,0a.776.776,0,0,0,.827-.683,2.984,2.984,0,0,0-2.45-3.338,19.192,19.192,0,0,0-2.584-.07,3,3,0,0,0-3.152,3.186.794.794,0,0,0,.9.906C-309.154,224.7-308.088,224.7-307.022,224.7Zm2.3-7.425a2.307,2.307,0,0,0-2.3-2.3,2.307,2.307,0,0,0-2.31,2.321,2.307,2.307,0,0,0,2.313,2.285A2.306,2.306,0,0,0-304.719,217.275Z" transform="translate(-32.836 -98.838)" stroke="#000" stroke-width="0.4" fill-rule="evenodd"/>
      <path id="Path_929" data-name="Path 929" d="M-164.891,340.018c.8,0,1.6,0,2.4,0,.4,0,.638.192.637.512s-.235.511-.638.511q-2.432,0-4.863,0c-.4,0-.637-.193-.637-.512s.234-.51.638-.511C-166.533,340.016-165.712,340.018-164.891,340.018Z" transform="translate(-164.695 -214.155)" stroke="#000" stroke-width="0.4" fill-rule="evenodd"/>
      <path id="Path_930" data-name="Path 930" d="M-165.969,305.026c-.48,0-.96,0-1.44,0a.52.52,0,0,1-.585-.5c-.008-.311.222-.521.593-.522q1.456-.006,2.911,0a.519.519,0,0,1,.586.5c.008.31-.224.519-.594.523C-164.988,305.03-165.479,305.026-165.969,305.026Z" transform="translate(-164.693 -181.211)" stroke="#000" stroke-width="0.4" fill-rule="evenodd"/>
      <path id="Path_931" data-name="Path 931" d="M-140.127,175.549c.114-.109.2-.187.282-.268q1.425-1.425,2.85-2.849c.29-.289.582-.313.809-.076a.537.537,0,0,1-.081.79q-1.7,1.711-3.416,3.415c-.316.315-.558.308-.879-.012q-1.111-1.105-2.217-2.216c-.289-.291-.316-.582-.083-.81s.53-.188.813.1C-141.415,174.25-140.785,174.886-140.127,175.549Z" transform="translate(-187.539 -60.65)" stroke="#000" stroke-width="0.4" fill-rule="evenodd"/>
    </g>
  </g>
</svg>
