<svg xmlns="http://www.w3.org/2000/svg" width="32" height="32" viewBox="0 0 32 32">
  <g id="details" transform="translate(-1768 -384)">
    <path id="Path_248" data-name="Path 248" d="M0,0H32V32H0Z" transform="translate(1768 384)" fill="#c15252" opacity="0"/>
    <g id="details-2" data-name="details" transform="translate(1340 -88)">
      <g id="Group_359" data-name="Group 359" transform="translate(432 476)">
        <path id="Path_8" data-name="Path 8" d="M-414.87,23.532h12.8a3.1,3.1,0,0,1,.372.276q2.168,2.157,4.33,4.32a.843.843,0,0,1,.269.644c-.007,1.594,0,3.187-.008,4.781a.776.776,0,0,0,.2.541,5.95,5.95,0,0,1,1.207,5.764c-.125.429-.328.836-.511,1.3a1.826,1.826,0,0,1,.179.143c1.123,1.12,2.239,2.247,3.368,3.361a1.72,1.72,0,0,1,.586,1.389,1.455,1.455,0,0,1-.5,1.067,1.573,1.573,0,0,1-2.249-.12c-.7-.692-1.393-1.391-2.09-2.086-.052-.052-.109-.1-.192-.172,0,.44,0,.838,0,1.235a1.428,1.428,0,0,1-1.557,1.56h-15.819a1.427,1.427,0,0,1-1.56-1.557q0-1.969,0-3.937,0-8.472,0-16.944a1.392,1.392,0,0,1,.4-1.111A4.386,4.386,0,0,1-414.87,23.532Zm16.417,19.8-.269.14a5.876,5.876,0,0,1-3.656.614,6,6,0,0,1-4.447-3.061.269.269,0,0,0-.273-.155q-2.929.009-5.859,0a.485.485,0,0,1-.545-.457.49.49,0,0,1,.529-.479c.062,0,.125,0,.187,0h5.447a5.972,5.972,0,0,1,2.2-6.737,5.948,5.948,0,0,1,7.08-.19v-3.95h-.264q-1.383,0-2.765,0a1.425,1.425,0,0,1-1.551-1.542q0-1.394,0-2.789v-.263h-11.791c-.539,0-.677.14-.677.683q0,10.382,0,20.763c0,.539.14.678.682.678h14.365c.484,0,.969,0,1.453,0,.371,0,.556-.178.559-.541q.008-1.066,0-2.132a.411.411,0,0,0-.087-.226C-398.228,43.57-398.34,43.46-398.453,43.336Zm-3.048-.118a5.172,5.172,0,0,0,5.144-5.172,5.171,5.171,0,0,0-5.154-5.139,5.172,5.172,0,0,0-5.156,5.16A5.172,5.172,0,0,0-401.5,43.218Zm3.868-.364c.015.017.066.074.12.128l3.309,3.31a1.817,1.817,0,0,0,.171.159.65.65,0,0,0,1.044-.412.7.7,0,0,0-.248-.625q-1.716-1.71-3.427-3.424a.263.263,0,0,0-.051-.044ZM-401.7,25.2c0,.788,0,1.568,0,2.347,0,.41.173.58.587.581q1.1,0,2.2,0a1.146,1.146,0,0,0,.129-.012Z" transform="translate(416.044 -23.532)" fill-rule="evenodd"/>
        <path id="Path_10" data-name="Path 10" d="M-356.821,96.381h4.286a1.869,1.869,0,0,1,.28.011.466.466,0,0,1,.393.433.456.456,0,0,1-.353.462,1.176,1.176,0,0,1-.277.03q-4.333,0-8.665,0a1.154,1.154,0,0,1-.277-.031.456.456,0,0,1-.349-.464.466.466,0,0,1,.4-.429,1.925,1.925,0,0,1,.28-.011Z" transform="translate(364.328 -92.966)" fill-rule="evenodd"/>
        <path id="Path_11" data-name="Path 11" d="M-315.3,166.522h-3.327a1.431,1.431,0,0,1-.28-.016.449.449,0,0,1-.362-.431.433.433,0,0,1,.328-.454,1.144,1.144,0,0,1,.3-.034q3.338,0,6.677,0a1.117,1.117,0,0,1,.277.03.457.457,0,0,1,.346.468.467.467,0,0,1-.4.428,1.72,1.72,0,0,1-.257.01Z" transform="translate(323.804 -158.925)" fill-rule="evenodd"/>
        <path id="Path_12" data-name="Path 12" d="M-359.034,235.843c-.726,0-1.452.006-2.178,0-.389,0-.631-.285-.5-.6a.834.834,0,0,1,.337-.311.559.559,0,0,1,.275-.028q2.061,0,4.122,0c.431,0,.652.16.654.467s-.219.47-.648.47Z" transform="translate(364.293 -224.995)" fill-rule="evenodd"/>
        <path id="Path_13" data-name="Path 13" d="M-359.231,304.343c.672,0,1.343,0,2.015,0a.524.524,0,0,1,.475.2.45.45,0,0,1-.231.7,1.055,1.055,0,0,1-.3.037q-1.957,0-3.913,0a1.119,1.119,0,0,1-.187-.011.479.479,0,0,1-.427-.477.466.466,0,0,1,.482-.446c.7-.008,1.39,0,2.085,0Z" transform="translate(364.342 -291.178)" fill-rule="evenodd"/>
        <path id="Path_14" data-name="Path 14" d="M-359.317,443.825c-.639,0-1.279.007-1.918,0-.387-.006-.626-.291-.49-.6a.862.862,0,0,1,.341-.305.506.506,0,0,1,.252-.027q1.825,0,3.649,0a1.292,1.292,0,0,1,.255.023.463.463,0,0,1,.369.45.45.45,0,0,1-.378.441,5.641,5.641,0,0,1-.63.022c-.483,0-.967,0-1.45,0Z" transform="translate(364.309 -423.227)" fill-rule="evenodd"/>
        <path id="Path_15" data-name="Path 15" d="M-360.869,166.165a.469.469,0,0,1-.464.461.474.474,0,0,1-.464-.464.484.484,0,0,1,.467-.465A.477.477,0,0,1-360.869,166.165Z" transform="translate(364.34 -159.032)" fill-rule="evenodd"/>
        <path id="Path_16" data-name="Path 16" d="M-235.478,444.072a.467.467,0,0,1-.474-.45.465.465,0,0,1,.457-.467.465.465,0,0,1,.474.45A.467.467,0,0,1-235.478,444.072Z" transform="translate(244.395 -423.483)" fill-rule="evenodd"/>
        <path id="Path_17" data-name="Path 17" d="M-185.764,249.64a4.138,4.138,0,0,1-4.131,4.128,4.138,4.138,0,0,1-4.117-4.12,4.139,4.139,0,0,1,4.132-4.128A4.138,4.138,0,0,1-185.764,249.64Zm-.937,0a3.2,3.2,0,0,0-3.193-3.186,3.2,3.2,0,0,0-3.181,3.175,3.2,3.2,0,0,0,3.181,3.2A3.2,3.2,0,0,0-186.7,249.644Z" transform="translate(204.421 -235.114)" fill-rule="evenodd"/>
        <path id="Path_18" data-name="Path 18" d="M-115.421,288.58a2.122,2.122,0,0,1,2.041,2.043.482.482,0,0,1-.426.525.454.454,0,0,1-.5-.446,1.231,1.231,0,0,0-1.2-1.2.451.451,0,0,1-.444-.5A.482.482,0,0,1-115.421,288.58Z" transform="translate(130.018 -276.155)" fill-rule="evenodd"/>
      </g>
    </g>
  </g>
</svg>
