<svg xmlns="http://www.w3.org/2000/svg" width="32" height="32" viewBox="0 0 32 32">
  <g id="calender" transform="translate(378 -90.316)">
    <path id="Path_254" data-name="Path 254" d="M-352.972,90.316h.9a1.7,1.7,0,0,1,1.221,2.137c.77,0,1.464,0,2.158,0a2.8,2.8,0,0,1,1.864.643A2.352,2.352,0,0,1-346,95.013q-.012,12.371-.005,24.742c0,.115,0,.229-.008.343a2.372,2.372,0,0,1-1.813,2.107c-.119.034-.235.074-.352.112h-27.645a6.712,6.712,0,0,1-.857-.315,2.277,2.277,0,0,1-1.32-2.153q.006-12.465,0-24.929c0-.083,0-.167.008-.25a2.2,2.2,0,0,1,1.412-1.936,4.055,4.055,0,0,1,1.335-.269c.675-.043,1.357-.011,2.019-.011a.425.425,0,0,0,.041-.092,1.354,1.354,0,0,0,.007-.218,1.6,1.6,0,0,1,1.24-1.826h.9a1.674,1.674,0,0,1,1.252,2.119h15.542c0-.149-.007-.282,0-.414a3.263,3.263,0,0,1,.067-.679A1.6,1.6,0,0,1-352.972,90.316Zm-23.963,9.777c-.009.122-.02.2-.02.285q0,8.812,0,17.625a1.481,1.481,0,0,0,1.674,1.5q10.019,0,20.038,0c.815,0,1.3-.433,1.3-1.164,0-.958,0-1.917,0-2.875a2.131,2.131,0,0,1,2.406-2.163c1.007,0,2.014,0,3.021,0,1.049,0,1.467-.378,1.467-1.329q0-5.734,0-11.468v-.41H-368.88a3.429,3.429,0,0,1-.45-.018.439.439,0,0,1-.423-.428.437.437,0,0,1,.41-.469,2.7,2.7,0,0,1,.449-.021h21.846V98.79q0-1.906,0-3.812c0-1.027-.621-1.586-1.758-1.588q-2.014,0-4.029,0h-.361c0,.439,0,.834,0,1.228,0,.457.086.546.595.646a.492.492,0,0,1,.458.506.519.519,0,0,1-.583.423,1.519,1.519,0,0,1-1.425-.971,2.715,2.715,0,0,1-.084-.74c-.013-.359,0-.719,0-1.071h-17.894c0,.395,0,.768,0,1.141,0,.511.071.586.636.717a.464.464,0,0,1,.422.5.479.479,0,0,1-.54.424,1.41,1.41,0,0,1-1.233-.587,2.252,2.252,0,0,1-.314-.933,10.424,10.424,0,0,1-.013-1.282c-.719,0-1.377,0-2.035,0-1.117,0-1.744.563-1.747,1.566,0,1.292,0,2.583,0,3.875v.325h.464q2.448,0,4.9,0a1.868,1.868,0,0,1,.413.029.424.424,0,0,1,.368.465.428.428,0,0,1-.39.419,2.269,2.269,0,0,1-.415.023q-2.448,0-4.9,0Zm29.889,14.834c-.158.134-.25.208-.338.286-1.621,1.458-3.25,2.909-4.857,4.379a3.213,3.213,0,0,1-2.294.854q-10.123-.016-20.246,0a3.716,3.716,0,0,1-2.18-.472,3.1,3.1,0,0,0,.066.389,1.559,1.559,0,0,0,1.6,1.016q13.283,0,26.566,0a1.483,1.483,0,0,0,1.679-1.494c.007-.8,0-1.6,0-2.406C-347.047,116.656-347.047,115.834-347.047,114.927Zm-5.852,3.818,5.009-4.508h-1.5c-.775,0-1.551-.009-2.325.005a1.1,1.1,0,0,0-1.176,1.046C-352.908,116.452-352.9,117.616-352.9,118.746Zm-17.893-26.308c-.094-.4.2-.875-.312-1.106a1.018,1.018,0,0,0-.778.033c-.441.256-.186.694-.259,1.073Zm18.933.015c-.07-.418.177-.871-.289-1.1a1.029,1.029,0,0,0-.807.016c-.439.253-.178.694-.243,1.088h1.339Z" transform="translate(0 0)" fill-rule="evenodd"/>
    <path id="Path_255" data-name="Path 255" d="M-342.257,303.619c-.365,0-.73.005-1.095,0a.88.88,0,0,1-.92-.9q-.023-1.126,0-2.252a.875.875,0,0,1,.888-.9c.75-.023,1.5-.022,2.252,0a.9.9,0,0,1,.914.921q.027,1.11,0,2.221a.9.9,0,0,1-.975.917C-341.548,303.622-341.9,303.619-342.257,303.619Zm-1.061-3.111v2.157h2.145v-2.157Z" transform="translate(-30.903 -191.794)" fill-rule="evenodd"/>
    <path id="Path_256" data-name="Path 256" d="M-189.41,303.623c-.376,0-.751.006-1.126,0a.854.854,0,0,1-.9-.82c-.031-.8-.03-1.606,0-2.407a.855.855,0,0,1,.893-.83c.75-.02,1.5-.022,2.252,0a.887.887,0,0,1,.9.933q.02,1.095,0,2.19a.9.9,0,0,1-.953.935C-188.7,303.626-189.055,303.623-189.41,303.623Zm-1.087-.965h2.147V300.51H-190.5Z" transform="translate(-168.984 -191.797)" fill-rule="evenodd"/>
    <path id="Path_257" data-name="Path 257" d="M-265.821,303.624c-.375,0-.751.006-1.126,0a.865.865,0,0,1-.9-.855q-.033-1.172,0-2.346a.866.866,0,0,1,.9-.857q1.11-.029,2.221,0a.9.9,0,0,1,.926.94q.023,1.094,0,2.19a.9.9,0,0,1-.96.93C-265.112,303.628-265.466,303.625-265.821,303.624Zm1.069-3.11H-266.9v2.156h2.145Z" transform="translate(-99.771 -191.799)" fill-rule="evenodd"/>
    <path id="Path_258" data-name="Path 258" d="M-344.24,232.112c0-.375-.011-.751,0-1.126a.862.862,0,0,1,.86-.893q1.156-.039,2.314,0a.865.865,0,0,1,.878.881q.034,1.141,0,2.283a.877.877,0,0,1-.91.883c-.75.016-1.5.017-2.252,0a.874.874,0,0,1-.89-.9C-344.251,232.863-344.24,232.487-344.24,232.112Zm.954-1.074v2.141h2.146v-2.141Z" transform="translate(-30.939 -128.112)" fill-rule="evenodd"/>
    <path id="Path_259" data-name="Path 259" d="M-265.86,234.131c-.365,0-.73.01-1.095,0a.889.889,0,0,1-.928-.928q-.024-1.11,0-2.221a.863.863,0,0,1,.884-.9q1.141-.034,2.283,0a.869.869,0,0,1,.885.906q.027,1.11,0,2.221a.9.9,0,0,1-.937.924C-265.13,234.141-265.5,234.131-265.86,234.131Zm1.07-.957v-2.143h-2.138v2.143Z" transform="translate(-99.74 -128.099)" fill-rule="evenodd"/>
    <path id="Path_260" data-name="Path 260" d="M-111.059,232.112c0,.365.008.73,0,1.095a.883.883,0,0,1-.9.919q-1.126.026-2.252,0a.86.86,0,0,1-.892-.864c-.029-.77-.028-1.543,0-2.314a.857.857,0,0,1,.886-.87c.761-.022,1.523-.023,2.283,0a.876.876,0,0,1,.882.939C-111.052,231.382-111.058,231.747-111.059,232.112Zm-3.109-1.086v2.141h2.148v-2.141Z" transform="translate(-237.763 -128.1)" fill-rule="evenodd"/>
    <path id="Path_261" data-name="Path 261" d="M-111.048,303.344c0,.354.006.709,0,1.064a.894.894,0,0,1-.927.962q-1.11.023-2.221,0a.859.859,0,0,1-.9-.855c-.03-.781-.029-1.564,0-2.345a.846.846,0,0,1,.873-.848q1.141-.035,2.283,0a.877.877,0,0,1,.891.93C-111.04,302.613-111.048,302.979-111.048,303.344ZM-112,304.42v-2.149h-2.149v2.149Z" transform="translate(-237.774 -193.405)" fill-rule="evenodd"/>
    <path id="Path_262" data-name="Path 262" d="M-189.528,234.117c-.344,0-.688.007-1.032,0a.9.9,0,0,1-.967-.926q-.031-1.11,0-2.221a.876.876,0,0,1,.914-.911q1.11-.03,2.221,0a.883.883,0,0,1,.919.937q.019,1.095,0,2.19a.9.9,0,0,1-.929.931h-1.126Zm-1.039-3.112v2.148h2.138v-2.148Z" transform="translate(-168.905 -128.084)" fill-rule="evenodd"/>
    <path id="Path_263" data-name="Path 263" d="M-342.265,373.308c-.354,0-.708,0-1.062,0a.893.893,0,0,1-.948-.906q-.023-1.124,0-2.248a.887.887,0,0,1,.943-.91q1.077-.012,2.155,0a.909.909,0,0,1,.959.936q.025,1.092,0,2.186a.919.919,0,0,1-.985.943C-341.557,373.311-341.911,373.308-342.265,373.308Zm-1.063-.96h2.148V370.2h-2.148Z" transform="translate(-30.9 -255.686)" fill-rule="evenodd"/>
    <path id="Path_264" data-name="Path 264" d="M-265.857,373.3c-.354,0-.708,0-1.062,0a.891.891,0,0,1-.955-.9q-.029-1.139,0-2.279a.879.879,0,0,1,.933-.886q1.093-.013,2.186,0a.89.89,0,0,1,.929.9c.021.759.022,1.52,0,2.279a.9.9,0,0,1-.938.888C-265.128,373.31-265.492,373.3-265.857,373.3Zm-1.074-.958h2.151V370.2h-2.151Z" transform="translate(-99.746 -255.682)" fill-rule="evenodd"/>
    <path id="Path_265" data-name="Path 265" d="M-188.442,372.287v-2.174h-2.176c0,.2.01.4,0,.592a.448.448,0,0,1-.471.473.455.455,0,0,1-.457-.459c-.006-.052,0-.1-.005-.156-.065-.989.238-1.475,1.374-1.41.561.032,1.126,0,1.689.007a.916.916,0,0,1,1,.987q.013,1.048,0,2.1a.918.918,0,0,1-1.007.982c-.709,0-1.419.007-2.128,0a.905.905,0,0,1-.915-.813.452.452,0,0,1,.316-.541.458.458,0,0,1,.573.258c.038.066.119.152.182.154C-189.8,372.291-189.135,372.287-188.442,372.287Z" transform="translate(-168.888 -255.604)" fill-rule="evenodd"/>
  </g>
</svg>
