<svg xmlns="http://www.w3.org/2000/svg" width="25.374" height="25.935" viewBox="0 0 25.374 25.935">
  <g id="sound_mute" data-name="sound mute" transform="translate(-1807.313 -349.439)">
    <g id="sound" transform="translate(1987.563 261.25)">
      <path id="Path_10" data-name="Path 10" d="M-180.25,123.143a.713.713,0,0,1,.764-.455c1.164.014,2.328,0,3.492.009a.493.493,0,0,0,.4-.18q2.637-2.858,5.282-5.708c.1-.1.189-.208.291-.3a.557.557,0,0,1,.6-.123.548.548,0,0,1,.385.472,2.308,2.308,0,0,1,.015.3q0,10.056,0,20.113c0,.058,0,.116,0,.173a.587.587,0,0,1-.4.6.59.59,0,0,1-.67-.19q-.7-.756-1.4-1.508-2.045-2.208-4.087-4.418a.542.542,0,0,0-.444-.2c-1.156.009-2.312,0-3.468.01a.715.715,0,0,1-.765-.455Zm10.021,12.794V118.528l-.051-.032c-.05.065-.095.134-.15.193-1.475,1.593-2.957,3.181-4.422,4.783a1.147,1.147,0,0,1-.948.417c-.99-.022-1.981-.007-2.972-.007h-.277v6.648h.278c1.024,0,2.048.007,3.071,0a.94.94,0,0,1,.761.326c1.2,1.308,2.409,2.607,3.616,3.909C-170.97,135.142-170.616,135.521-170.229,135.936Z" transform="translate(0 -25.77)" fill="#fff" fill-rule="evenodd"/>
      <path id="Path_11" data-name="Path 11" d="M80.5,114.124c-.381-.223-.524-.469-.392-.771a.835.835,0,0,1,.335-.37,12.41,12.41,0,0,0,6.344-8.989A13.35,13.35,0,0,0,84.323,93.22a11.272,11.272,0,0,0-3.859-3.31.623.623,0,0,1-.392-.579.58.58,0,0,1,.394-.549.158.158,0,0,0,.037-.032h.347a.273.273,0,0,0,.051.048,13.688,13.688,0,0,1,7.137,10.23c.092.517.133,1.044.2,1.566v1.685c-.014.08-.031.159-.042.239-.1.726-.158,1.463-.316,2.177a13.755,13.755,0,0,1-5.021,8.125c-.626.489-1.334.871-2,1.3Z" transform="translate(-243.11)" fill="#fff" fill-rule="evenodd"/>
      <path id="Path_14" data-name="Path 14" d="M56.269,154.721a9.734,9.734,0,0,1-3.95,7.806,10.778,10.778,0,0,1-1.4.83.583.583,0,0,1-.841-.258.6.6,0,0,1,.339-.814,8.068,8.068,0,0,0,4.5-6.142,8.809,8.809,0,0,0-1.876-7.383,7.381,7.381,0,0,0-2.6-2.022.6.6,0,0,1-.392-.751.59.59,0,0,1,.865-.337,8.561,8.561,0,0,1,2.916,2.213A10.285,10.285,0,0,1,56.269,154.721Z" transform="translate(-215.049 -53.069)" fill="#fff" fill-rule="evenodd"/>
      <path id="Path_15" data-name="Path 15" d="M23.83,208.125a5.379,5.379,0,0,1-2.977,4.9,3.681,3.681,0,0,1-.551.217.6.6,0,0,1-.807-.356.588.588,0,0,1,.428-.769,3.733,3.733,0,0,0,1.464-.895,4.378,4.378,0,0,0-.838-6.769,5.348,5.348,0,0,0-.636-.27.6.6,0,1,1,.375-1.129,4.968,4.968,0,0,1,3.165,3.115,5.122,5.122,0,0,1,.25.9C23.768,207.432,23.792,207.795,23.83,208.125Z" transform="translate(-186.513 -106.716)" fill="#fff" fill-rule="evenodd"/>
    </g>
    <line id="Line_25" data-name="Line 25" x1="22" y2="22" transform="translate(1809 350.5)" fill="none" stroke="#fff" stroke-linecap="round" stroke-width="1.5"/>
  </g>
</svg>
