<svg width="18" height="18" viewBox="0 0 18 18" fill="none" xmlns="http://www.w3.org/2000/svg">
<path d="M12.5 11.2114H11.71L11.43 10.9551C12.41 9.87303 13 8.46823 13 6.94004C13 3.53246 10.09 0.770325 6.5 0.770325C2.91 0.770325 0 3.53246 0 6.94004C0 10.3476 2.91 13.1098 6.5 13.1098C8.11 13.1098 9.59 12.5497 10.73 11.6195L11 11.8853V12.6352L16 17.3716L17.49 15.9573L12.5 11.2114ZM6.5 11.2114C4.01 11.2114 2 9.30351 2 6.94004C2 4.57656 4.01 2.6687 6.5 2.6687C8.99 2.6687 11 4.57656 11 6.94004C11 9.30351 8.99 11.2114 6.5 11.2114Z" fill="white"/>
</svg>
