<svg xmlns="http://www.w3.org/2000/svg" width="21.186" height="21.186" viewBox="0 0 21.186 21.186">
  <g id="sound_yellow" transform="translate(180.25 -88.75)">
    <path id="Path_10" data-name="Path 10" d="M-180.25,122.018a.6.6,0,0,1,.64-.38c.974.012,1.948,0,2.922.008a.413.413,0,0,0,.337-.151q2.206-2.385,4.42-4.764c.08-.086.158-.174.243-.254a.467.467,0,0,1,.5-.1.458.458,0,0,1,.322.394,1.922,1.922,0,0,1,.012.247q0,8.393,0,16.787c0,.048,0,.1,0,.145a.49.49,0,0,1-.333.5.494.494,0,0,1-.56-.159q-.583-.631-1.169-1.259-1.711-1.843-3.42-3.687a.454.454,0,0,0-.371-.167c-.967.008-1.935,0-2.9.008a.6.6,0,0,1-.64-.38Zm8.385,10.678v-14.53l-.042-.026c-.042.054-.079.112-.125.161-1.234,1.33-2.474,2.655-3.7,3.992a.96.96,0,0,1-.793.348c-.829-.019-1.658-.006-2.487-.006h-.232v5.549h.232c.857,0,1.713.006,2.57,0a.788.788,0,0,1,.637.272c1,1.092,2.016,2.176,3.025,3.263C-172.485,132.033-172.189,132.349-171.865,132.7Z" transform="translate(0 -26.067)" fill="#eac143" fill-rule="evenodd"/>
    <path id="Path_11" data-name="Path 11" d="M80.431,109.936c-.319-.186-.438-.392-.328-.644a.7.7,0,0,1,.28-.309,10.362,10.362,0,0,0,5.308-7.505,11.128,11.128,0,0,0-2.064-9A9.426,9.426,0,0,0,80.4,89.719a.52.52,0,0,1-.328-.484.485.485,0,0,1,.33-.458.132.132,0,0,0,.031-.027h.29a.228.228,0,0,0,.042.04,11.429,11.429,0,0,1,5.971,8.542c.077.432.111.872.165,1.308v1.407c-.012.066-.026.133-.035.2-.086.606-.132,1.222-.265,1.818a11.481,11.481,0,0,1-4.2,6.784c-.523.408-1.116.728-1.677,1.088Z" transform="translate(-245.964 0)" fill="#eac143" fill-rule="evenodd"/>
    <path id="Path_14" data-name="Path 14" d="M55.248,153.2a8.112,8.112,0,0,1-3.305,6.511,9.025,9.025,0,0,1-1.173.692.488.488,0,0,1-.7-.215.5.5,0,0,1,.284-.679,6.732,6.732,0,0,0,3.764-5.123,7.331,7.331,0,0,0-1.57-6.159,6.173,6.173,0,0,0-2.172-1.687.5.5,0,1,1,.4-.908,7.161,7.161,0,0,1,2.44,1.846A8.563,8.563,0,0,1,55.248,153.2Z" transform="translate(-217.57 -53.683)" fill="#eac143" fill-rule="evenodd"/>
    <path id="Path_15" data-name="Path 15" d="M23.117,207.291a4.5,4.5,0,0,1-2.491,4.1,3.081,3.081,0,0,1-.461.182.5.5,0,0,1-.675-.3.492.492,0,0,1,.358-.643,3.123,3.123,0,0,0,1.225-.749,3.663,3.663,0,0,0-.7-5.664,4.474,4.474,0,0,0-.532-.226.5.5,0,1,1,.314-.945,4.157,4.157,0,0,1,2.648,2.607,4.286,4.286,0,0,1,.209.756C23.065,206.711,23.085,207.015,23.117,207.291Z" transform="translate(-188.697 -107.972)" fill="#eac143" fill-rule="evenodd"/>
  </g>
</svg>
