<svg width="119" height="111" viewBox="0 0 119 111" fill="none" xmlns="http://www.w3.org/2000/svg">
<path d="M118.568 59.401C118.568 26.7793 92.1216 0.333252 59.4999 0.333252C26.8782 0.333252 0.432129 26.7793 0.432129 59.401H4.70072C4.70072 29.1366 29.2355 4.60188 59.4999 4.60188C89.7644 4.60188 114.299 29.1366 114.299 59.401C114.299 74.5332 108.168 88.2308 98.2486 98.1498L101.268 101.169C111.955 90.4821 118.568 75.7119 118.568 59.401Z" fill="white"/>
<path d="M59.5042 32.8931C44.8576 32.8931 32.9832 44.7675 32.9832 59.4142C32.9832 74.0608 44.8576 85.9397 59.5042 85.9397V81.6844C47.206 81.6844 37.2385 71.7169 37.2385 59.4186C37.2385 47.1204 47.206 37.1529 59.5042 37.1529C65.6533 37.1529 71.2198 39.6469 75.2501 43.6728L78.2607 40.6622C73.4623 35.8639 66.832 32.8931 59.5086 32.8931" fill="white"/>
<path d="M59.5038 94.0886C78.653 94.0886 94.1737 78.568 94.1737 59.4187C94.1737 40.2695 78.653 24.7488 59.5038 24.7488V29.0218C76.2914 29.0218 89.9007 42.6311 89.9007 59.4187C89.9007 76.2063 76.2914 89.8156 59.5038 89.8156C51.1122 89.8156 43.5108 86.4122 38.0105 80.9119L34.9868 83.9357C41.2595 90.2085 49.9291 94.0886 59.5038 94.0886Z" fill="white"/>
<path d="M59.5078 16.6221C35.8736 16.6221 16.7156 35.7801 16.7156 59.4143C16.7156 83.0485 35.8736 102.202 59.5078 102.202V97.9423C38.2264 97.9423 20.9799 80.6913 20.9799 59.4143C20.9799 38.1374 38.2309 20.8819 59.5078 20.8819C70.1507 20.8819 79.7828 25.1946 86.753 32.1648L89.7634 29.1543C82.0208 21.4116 71.3249 16.6221 59.5034 16.6221" fill="#FFCF00"/>
<path d="M59.5045 110.333C87.6324 110.333 110.437 87.5289 110.437 59.401C110.437 31.273 87.6324 8.46875 59.5045 8.46875V12.7241C85.284 12.7241 106.181 33.6214 106.181 59.401C106.181 85.1805 85.284 106.078 59.5045 106.078C46.6147 106.078 34.9478 100.851 26.4989 92.4067L23.4883 95.4128C32.7053 104.63 45.4405 110.329 59.5045 110.329" fill="#FFCF00"/>
</svg>
